<svg xmlns="http://www.w3.org/2000/svg" width="132" height="132">
  <g fill="none" fill-rule="evenodd" stroke="#EF6C00" stroke-width="6">
    <circle cx="66" cy="66" r="63" />
    <path stroke-linecap="round" stroke-linejoin="round"
      d="M41.839 72.475v-37.2c0-3.852 3.143-6.975 7.02-6.975s7.02 3.123 7.02 6.975V65.5m0-30.225v-9.3c0-3.852 3.143-6.975 7.02-6.975s7.02 3.123 7.02 6.975V65.5m0-30.225c0-3.852 3.143-6.975 7.02-6.975 3.878 0 7.02 3.123 7.02 6.975V65.5m0-20.925c0-3.852 3.144-6.975 7.02-6.975 3.878 0 7.021 3.123 7.021 6.975V84.1C98 99.509 85.428 112 69.92 112h-9.36c-9.896-1.357-18.517-6.496-23.401-13.95L24.522 73.637c-2.584-3.53-1.799-8.475 1.755-11.043 3.555-2.568 8.531-1.788 11.116 1.743l4.212 8.138" />
  </g>
</svg>
